<svg width="130" height="130" viewBox="0 0 130 130" fill="none" xmlns="http://www.w3.org/2000/svg">
<g clip-path="url(#clip0_218_2676)">
<g filter="url(#filter0_d_218_2676)">
<rect width="130" height="130" fill="white"/>
</g>
<g opacity="0.4">
<path d="M40.658 70.744C41.0341 78.4536 38.9657 84.8469 33.1365 91.8043" stroke="#C6C6C6" stroke-width="12.4105" stroke-linecap="round"/>
<path d="M89.0006 70.744C88.6245 78.4536 90.6929 84.8469 96.5221 91.8043" stroke="#C6C6C6" stroke-width="12.4105" stroke-linecap="round"/>
<path d="M56.0771 76.0089C56.4532 83.7185 56.8292 90.1118 52.1283 103.651" stroke="#C6C6C6" stroke-width="12.4105" stroke-linecap="round"/>
<path d="M73.5815 76.0089C73.2054 83.7185 72.8293 90.1118 77.5303 103.651" stroke="#C6C6C6" stroke-width="12.4105" stroke-linecap="round"/>
<g opacity="0.2" filter="url(#filter1_i_218_2676)">
<path d="M118.13 66.6043C118.13 95.4731 94.5573 78.667 65.4792 78.667C36.401 78.667 12.8285 95.4731 12.8285 66.6043C12.8285 37.7355 36.401 14.3326 65.4792 14.3326C94.5573 14.3326 118.13 37.7355 118.13 66.6043Z" fill="#E1E1E1"/>
</g>
<g filter="url(#filter2_i_218_2676)">
<path d="M114.369 65.4789C114.369 92.4801 92.48 76.7612 65.4789 76.7612C38.4777 76.7612 16.589 92.4801 16.589 65.4789C16.589 38.4777 38.4777 16.589 65.4789 16.589C92.48 16.589 114.369 38.4777 114.369 65.4789Z" fill="#E1E1E1"/>
</g>
</g>
<path d="M45.2655 50H41.3875V49.132L42.5775 48.782V41.236L41.3875 40.872V40.004H45.2655V40.872L44.0895 41.236V48.782L45.2655 49.132V50ZM51.4887 50L48.4647 41.502H48.4087C48.418 41.6887 48.432 41.9407 48.4507 42.258C48.4694 42.5753 48.4834 42.916 48.4927 43.28C48.502 43.644 48.5067 44.0033 48.5067 44.358V50H47.1347V40.004H49.2907L52.1607 48.026H52.2167L55.1707 40.004H57.3267V50H55.8567V44.274C55.8567 43.9473 55.8614 43.6113 55.8707 43.266C55.8894 42.9113 55.9034 42.58 55.9127 42.272C55.9314 41.964 55.9454 41.712 55.9547 41.516H55.8987L52.7907 50H51.4887ZM66.2163 50L65.1523 47.116H61.2883L60.2243 50H58.6562L62.4503 39.962H64.0183L67.7983 50H66.2163ZM63.7243 42.986C63.6963 42.8833 63.6449 42.7293 63.5703 42.524C63.5049 42.3093 63.4396 42.0947 63.3743 41.88C63.3089 41.656 63.2576 41.474 63.2203 41.334C63.1736 41.5207 63.1176 41.726 63.0523 41.95C62.9963 42.1647 62.9403 42.3653 62.8843 42.552C62.8283 42.7293 62.7816 42.874 62.7443 42.986L61.7363 45.8H64.7323L63.7243 42.986ZM73.045 44.624H76.657V49.608C76.125 49.7853 75.579 49.916 75.019 50C74.4683 50.0933 73.8383 50.14 73.129 50.14C72.1116 50.14 71.2483 49.9347 70.539 49.524C69.839 49.1133 69.3023 48.5253 68.929 47.76C68.565 46.9947 68.383 46.0753 68.383 45.002C68.383 43.9567 68.5883 43.0513 68.999 42.286C69.4096 41.5207 69.9976 40.928 70.763 40.508C71.5376 40.0787 72.4756 39.864 73.577 39.864C74.1276 39.864 74.655 39.92 75.159 40.032C75.663 40.1347 76.1296 40.2793 76.559 40.466L76.013 41.726C75.6676 41.5673 75.2803 41.4367 74.851 41.334C74.431 41.222 73.9876 41.166 73.521 41.166C72.7836 41.166 72.1443 41.3247 71.603 41.642C71.071 41.95 70.6603 42.3933 70.371 42.972C70.091 43.5413 69.951 44.2227 69.951 45.016C69.951 45.7627 70.0676 46.4253 70.301 47.004C70.5343 47.5827 70.903 48.0353 71.407 48.362C71.911 48.6887 72.569 48.852 73.381 48.852C73.6516 48.852 73.8896 48.8427 74.095 48.824C74.3003 48.796 74.487 48.768 74.655 48.74C74.8323 48.7027 75.0003 48.67 75.159 48.642V45.926H73.045V44.624ZM84.6728 50H79.0448V40.004H84.6728V41.292H80.5568V44.148H84.4208V45.422H80.5568V48.698H84.6728V50ZM39.2501 56.004C40.5568 56.004 41.5088 56.27 42.1061 56.802C42.7035 57.3247 43.0021 58.0573 43.0021 59C43.0021 59.42 42.9321 59.8213 42.7921 60.204C42.6615 60.5867 42.4421 60.932 42.1341 61.24C41.8261 61.5387 41.4155 61.7767 40.9021 61.954C40.3981 62.122 39.7775 62.206 39.0401 62.206H37.9621V66H36.4501V56.004H39.2501ZM39.1381 57.278H37.9621V60.932H38.8721C39.4415 60.932 39.9175 60.8713 40.3001 60.75C40.6828 60.6193 40.9675 60.4187 41.1541 60.148C41.3501 59.868 41.4481 59.504 41.4481 59.056C41.4481 58.4587 41.2615 58.0153 40.8881 57.726C40.5241 57.4273 39.9408 57.278 39.1381 57.278ZM47.8224 56.004C48.681 56.004 49.3857 56.1113 49.9364 56.326C50.487 56.5407 50.8977 56.8627 51.1684 57.292C51.439 57.712 51.5744 58.244 51.5744 58.888C51.5744 59.4013 51.4764 59.8353 51.2804 60.19C51.0937 60.5353 50.851 60.82 50.5524 61.044C50.2537 61.2587 49.941 61.4313 49.6144 61.562L52.4144 66H50.6784L48.2704 61.954H46.5344V66H45.0224V56.004H47.8224ZM47.7244 57.292H46.5344V60.694H47.7944C48.3077 60.694 48.7277 60.6287 49.0544 60.498C49.3904 60.3673 49.633 60.1713 49.7824 59.91C49.941 59.6487 50.0204 59.3267 50.0204 58.944C50.0204 58.5427 49.9364 58.2253 49.7684 57.992C49.6097 57.7493 49.3577 57.572 49.0124 57.46C48.6764 57.348 48.247 57.292 47.7244 57.292ZM59.5098 66H53.8818V56.004H59.5098V57.292H55.3938V60.148H59.2578V61.422H55.3938V64.698H59.5098V66ZM68.9547 56.004L65.4267 66H63.8587L60.3447 56.004H61.8987L64.0407 62.276C64.1247 62.5 64.2041 62.7427 64.2787 63.004C64.3534 63.256 64.4234 63.508 64.4887 63.76C64.5541 64.012 64.6054 64.25 64.6427 64.474C64.6894 64.25 64.7407 64.012 64.7967 63.76C64.8621 63.508 64.9321 63.2513 65.0067 62.99C65.0907 62.7287 65.1701 62.486 65.2447 62.262L67.3867 56.004H68.9547ZM73.368 66H69.49V65.132L70.68 64.782V57.236L69.49 56.872V56.004H73.368V56.872L72.192 57.236V64.782L73.368 65.132V66ZM80.8652 66H75.2372V56.004H80.8652V57.292H76.7492V60.148H80.6132V61.422H76.7492V64.698H80.8652V66ZM94.7482 56.004L92.1162 66H90.5062L88.7422 59.826C88.6862 59.658 88.6302 59.4713 88.5742 59.266C88.5275 59.0607 88.4809 58.86 88.4342 58.664C88.3875 58.4587 88.3455 58.2767 88.3082 58.118C88.2802 57.9593 88.2569 57.838 88.2382 57.754C88.2289 57.838 88.2102 57.9593 88.1822 58.118C88.1542 58.2767 88.1169 58.4587 88.0702 58.664C88.0235 58.86 87.9769 59.0653 87.9302 59.28C87.8835 59.4853 87.8322 59.6813 87.7762 59.868L86.0402 66H84.4302L81.8122 56.004H83.3662L84.8362 61.912C84.8829 62.1173 84.9295 62.3273 84.9762 62.542C85.0229 62.7567 85.0649 62.9713 85.1022 63.186C85.1489 63.4007 85.1862 63.6107 85.2142 63.816C85.2515 64.012 85.2842 64.194 85.3122 64.362C85.3402 64.1847 85.3682 63.9933 85.3962 63.788C85.4335 63.5827 85.4755 63.3727 85.5222 63.158C85.5689 62.934 85.6155 62.7147 85.6622 62.5C85.7182 62.2853 85.7742 62.0893 85.8302 61.912L87.4962 56.004H89.0082L90.7302 61.94C90.7862 62.1267 90.8375 62.3273 90.8842 62.542C90.9402 62.7567 90.9915 62.976 91.0382 63.2C91.0849 63.4147 91.1222 63.6247 91.1502 63.83C91.1875 64.026 91.2202 64.2033 91.2482 64.362C91.2762 64.1287 91.3135 63.8767 91.3602 63.606C91.4162 63.326 91.4769 63.0413 91.5422 62.752C91.6075 62.4533 91.6729 62.1733 91.7382 61.912L93.2082 56.004H94.7482Z" fill="#7B7C7B"/>
</g>
<defs>
<filter id="filter0_d_218_2676" x="-9.87342" y="-8.22785" width="149.747" height="149.747" filterUnits="userSpaceOnUse" color-interpolation-filters="sRGB">
<feFlood flood-opacity="0" result="BackgroundImageFix"/>
<feColorMatrix in="SourceAlpha" type="matrix" values="0 0 0 0 0 0 0 0 0 0 0 0 0 0 0 0 0 0 127 0" result="hardAlpha"/>
<feOffset dy="1.64557"/>
<feGaussianBlur stdDeviation="4.93671"/>
<feColorMatrix type="matrix" values="0 0 0 0 0 0 0 0 0 0 0 0 0 0 0 0 0 0 0.1 0"/>
<feBlend mode="normal" in2="BackgroundImageFix" result="effect1_dropShadow_218_2676"/>
<feBlend mode="normal" in="SourceGraphic" in2="effect1_dropShadow_218_2676" result="shape"/>
</filter>
<filter id="filter1_i_218_2676" x="12.8285" y="14.3326" width="105.301" height="69.198" filterUnits="userSpaceOnUse" color-interpolation-filters="sRGB">
<feFlood flood-opacity="0" result="BackgroundImageFix"/>
<feBlend mode="normal" in="SourceGraphic" in2="BackgroundImageFix" result="shape"/>
<feColorMatrix in="SourceAlpha" type="matrix" values="0 0 0 0 0 0 0 0 0 0 0 0 0 0 0 0 0 0 127 0" result="hardAlpha"/>
<feOffset/>
<feGaussianBlur stdDeviation="7.52152"/>
<feComposite in2="hardAlpha" operator="arithmetic" k2="-1" k3="1"/>
<feColorMatrix type="matrix" values="0 0 0 0 0.8875 0 0 0 0 0.8875 0 0 0 0 0.8875 0 0 0 1 0"/>
<feBlend mode="normal" in2="shape" result="effect1_innerShadow_218_2676"/>
</filter>
<filter id="filter2_i_218_2676" x="16.589" y="16.589" width="97.7799" height="64.7212" filterUnits="userSpaceOnUse" color-interpolation-filters="sRGB">
<feFlood flood-opacity="0" result="BackgroundImageFix"/>
<feBlend mode="normal" in="SourceGraphic" in2="BackgroundImageFix" result="shape"/>
<feColorMatrix in="SourceAlpha" type="matrix" values="0 0 0 0 0 0 0 0 0 0 0 0 0 0 0 0 0 0 127 0" result="hardAlpha"/>
<feOffset/>
<feGaussianBlur stdDeviation="7.52152"/>
<feComposite in2="hardAlpha" operator="arithmetic" k2="-1" k3="1"/>
<feColorMatrix type="matrix" values="0 0 0 0 0.9 0 0 0 0 0.9 0 0 0 0 0.9 0 0 0 1 0"/>
<feBlend mode="normal" in2="shape" result="effect1_innerShadow_218_2676"/>
</filter>
<clipPath id="clip0_218_2676">
<rect width="130" height="130" fill="white"/>
</clipPath>
</defs>
</svg>
